<?xml version="1.0" standalone="no"?>
<!DOCTYPE svg PUBLIC "-//W3C//DTD SVG 20010904//EN"
 "http://www.w3.org/TR/2001/REC-SVG-20010904/DTD/svg10.dtd">
<svg version="1.0" xmlns="http://www.w3.org/2000/svg"
 width="137.000000pt" height="137.000000pt" viewBox="0 0 137.000000 137.000000"
 preserveAspectRatio="xMidYMid meet">
<metadata>
Created by potrace 1.14, written by Peter Selinger 2001-2017
</metadata>
<g transform="translate(0.000000,137.000000) scale(0.100000,-0.100000)"
fill="#000000" stroke="none">
<path d="M735 1150 c-26 -80 -49 -146 -50 -148 -2 -2 -20 8 -42 22 -57 38
-121 57 -193 58 -251 3 -416 -272 -297 -497 48 -92 161 -164 273 -173 35 -2
64 -8 64 -12 0 -3 -11 -40 -25 -80 -14 -40 -23 -75 -21 -77 2 -2 79 50 170
117 91 67 170 120 174 118 4 -2 80 -56 169 -120 88 -65 163 -118 166 -118 3 0
-22 80 -54 177 -32 98 -60 189 -61 202 -3 21 20 41 160 144 90 65 161 121 159
124 -3 2 -96 5 -208 6 l-204 2 -66 200 -65 200 -49 -145z"/>
</g>
</svg>
